<svg width="321" height="307" viewBox="0 0 321 307" fill="none" xmlns="http://www.w3.org/2000/svg">
<g opacity="0.18" clip-path="url(#clip0_88_56)">
<path d="M279.677 231.511C276.692 231.511 273.708 230.479 271.24 228.473L267.567 225.435C266.304 224.403 264.812 223.83 263.205 223.716L258.499 223.429C251.956 223.028 246.791 217.984 246.159 211.507L245.7 206.806C245.528 205.202 244.897 203.711 243.864 202.508L240.707 198.954C236.402 194.024 236.288 186.86 240.42 181.815L243.462 178.147C244.495 176.886 245.069 175.396 245.184 173.791L245.471 169.091C245.872 162.556 250.923 157.398 257.408 156.767L262.115 156.309C263.722 156.137 265.214 155.506 266.419 154.474L269.977 151.379C274.913 147.08 282.087 146.966 287.138 151.093L290.811 154.13C292.074 155.162 293.566 155.735 295.173 155.85L299.879 156.137C306.422 156.538 311.588 161.582 312.219 168.059L312.678 172.759C312.85 174.364 313.482 175.854 314.515 177.058L317.671 180.612C321.976 185.541 322.09 192.706 317.958 197.75L314.916 201.419C313.883 202.68 313.309 204.17 313.195 205.775L312.908 210.475C312.506 217.009 307.455 222.168 300.97 222.798L296.264 223.257C294.657 223.429 293.164 224.059 291.959 225.091L288.401 228.244C285.875 230.422 282.776 231.511 279.677 231.511ZM270.207 158.773C268.084 160.607 265.501 161.754 262.746 161.983L258.04 162.442C254.309 162.786 251.439 165.766 251.21 169.492L250.923 174.192C250.751 177.001 249.718 179.58 247.939 181.758L244.897 185.427C242.544 188.292 242.601 192.419 245.069 195.228L248.168 198.782C250.005 200.903 251.153 203.482 251.382 206.233L251.841 210.933C252.186 214.659 255.17 217.525 258.901 217.754L263.607 218.041C266.419 218.213 269.002 219.245 271.183 221.022L274.856 224.059C277.726 226.41 281.858 226.352 284.67 223.888L288.229 220.792C290.352 218.958 292.935 217.812 295.69 217.582L300.396 217.124C304.126 216.78 306.996 213.799 307.226 210.074L307.513 205.374C307.685 202.565 308.718 199.986 310.497 197.807L313.539 194.139C315.892 191.273 315.835 187.146 313.367 184.337L310.267 180.784C308.431 178.663 307.283 176.084 307.053 173.332L306.594 168.632C306.25 164.906 303.266 162.04 299.535 161.811L294.829 161.525C292.016 161.353 289.434 160.321 287.253 158.544L283.58 155.506C280.71 153.099 276.578 153.213 273.765 155.678L270.207 158.773Z" fill="#FE7A8B"/>
<path d="M184.634 231.511C181.649 231.511 178.665 230.479 176.197 228.473L172.524 225.435C171.261 224.403 169.769 223.83 168.162 223.716L163.456 223.429C156.913 223.028 151.748 217.984 151.116 211.507L150.657 206.806C150.485 205.202 149.854 203.711 148.82 202.508L145.664 198.954C141.359 194.024 141.245 186.86 145.377 181.815L148.419 178.147C149.452 176.886 150.026 175.396 150.141 173.791L150.428 169.091C150.829 162.556 155.88 157.398 162.365 156.767L167.072 156.309C168.679 156.137 170.171 155.506 171.376 154.474L174.934 151.379C179.87 147.08 187.044 146.966 192.095 151.093L195.768 154.13C197.031 155.162 198.523 155.735 200.13 155.85L204.836 156.137C211.379 156.538 216.544 161.582 217.176 168.059L217.635 172.759C217.807 174.364 218.438 175.854 219.471 177.058L222.628 180.612C226.933 185.541 227.047 192.706 222.915 197.75L219.873 201.419C218.84 202.68 218.266 204.17 218.151 205.775L217.864 210.475C217.463 217.009 212.412 222.168 205.927 222.798L201.22 223.257C199.613 223.429 198.121 224.059 196.916 225.091L193.358 228.244C190.832 230.422 187.733 231.511 184.634 231.511ZM175.164 158.773C173.04 160.607 170.458 161.754 167.703 161.983L162.997 162.442C159.266 162.786 156.396 165.766 156.167 169.492L155.88 174.192C155.708 177.001 154.675 179.58 152.895 181.758L149.854 185.427C147.5 188.292 147.558 192.419 150.026 195.228L153.125 198.782C154.962 200.903 156.109 203.482 156.339 206.233L156.798 210.933C157.143 214.659 160.127 217.525 163.858 217.754L168.564 218.041C171.376 218.213 173.959 219.245 176.14 221.022L179.813 224.059C182.682 226.41 186.815 226.352 189.627 223.888L193.185 220.792C195.309 218.958 197.892 217.812 200.647 217.582L205.353 217.124C209.083 216.78 211.953 213.799 212.183 210.074L212.47 205.374C212.642 202.565 213.675 199.986 215.454 197.807L218.496 194.139C220.849 191.273 220.792 187.146 218.324 184.337L215.224 180.784C213.388 178.663 212.24 176.084 212.01 173.332L211.551 168.632C211.207 164.906 208.222 162.04 204.492 161.811L199.786 161.525C196.973 161.353 194.391 160.321 192.21 158.544L188.537 155.506C185.667 153.099 181.535 153.213 178.722 155.678L175.164 158.773Z" fill="#FE7A8B"/>
<path d="M232.155 157.512C229.171 157.512 226.186 156.481 223.719 154.474L220.045 151.437C218.783 150.405 217.291 149.832 215.684 149.717L210.977 149.43C204.434 149.029 199.269 143.985 198.638 137.508L198.179 132.808C198.006 131.203 197.375 129.713 196.342 128.509L193.185 124.955C188.881 120.026 188.766 112.861 192.898 107.817L195.94 104.148C196.973 102.887 197.547 101.397 197.662 99.7922L197.949 95.092C198.351 88.5577 203.401 83.399 209.887 82.7684L214.593 82.3099C216.2 82.1379 217.692 81.5074 218.898 80.4757L222.456 77.3805C227.392 73.0816 234.566 72.9669 239.616 77.0939L243.29 80.1318C244.552 81.1635 246.045 81.7367 247.652 81.8514L252.358 82.1379C258.901 82.5392 264.066 87.5832 264.697 94.0603L265.156 98.7604C265.329 100.365 265.96 101.856 266.993 103.059L270.15 106.613C274.454 111.543 274.569 118.707 270.437 123.751L267.395 127.42C266.362 128.681 265.788 130.171 265.673 131.776L265.386 136.476C264.984 143.011 259.934 148.169 253.448 148.8L248.742 149.258C247.135 149.43 245.643 150.061 244.438 151.093L240.879 154.245C238.354 156.366 235.255 157.512 232.155 157.512ZM222.686 84.7173C220.562 86.5515 217.979 87.6979 215.224 87.9271L210.518 88.3857C206.788 88.7296 203.918 91.7102 203.688 95.4359L203.401 100.136C203.229 102.945 202.196 105.524 200.417 107.702L197.375 111.371C195.022 114.237 195.079 118.363 197.547 121.172L200.647 124.726C202.483 126.847 203.631 129.426 203.861 132.177L204.32 136.877C204.664 140.603 207.648 143.469 211.379 143.698L216.085 143.985C218.898 144.157 221.48 145.189 223.661 146.966L227.334 150.004C230.204 152.354 234.336 152.296 237.149 149.832L240.707 146.736C242.831 144.902 245.413 143.756 248.168 143.526L252.874 143.068C256.605 142.724 259.475 139.743 259.704 136.018L259.991 131.318C260.163 128.509 261.196 125.93 262.976 123.751L266.017 120.083C268.37 117.217 268.313 113.09 265.845 110.282L262.746 106.728C260.909 104.607 259.761 102.028 259.532 99.2763L259.073 94.5761C258.728 90.8504 255.744 87.9845 252.013 87.7552L247.307 87.4686C244.495 87.2966 241.912 86.2649 239.731 84.488L236.058 81.4501C233.188 79.0427 229.056 79.1574 226.244 81.6221L222.686 84.7173Z" fill="#FE7A8B"/>
<path d="M279.677 83.4563C276.692 83.4563 273.708 82.4245 271.24 80.4184L267.567 77.3805C266.304 76.3487 264.812 75.7755 263.205 75.6609L258.499 75.3743C251.956 74.9731 246.791 69.929 246.159 63.452L245.7 58.7518C245.528 57.1469 244.897 55.6566 243.864 54.4529L240.707 50.8991C236.402 45.9697 236.288 38.8048 240.42 33.7608L243.462 30.0924C244.495 28.8314 245.069 27.3411 245.184 25.7361L245.471 21.036C245.872 14.5016 250.923 9.34293 257.408 8.71242L262.115 8.25387C263.722 8.08191 265.214 7.45141 266.419 6.41967L269.977 3.32445C274.913 -0.974472 282.087 -1.08911 287.138 3.03785L290.811 6.07575C292.074 7.10749 293.566 7.68068 295.173 7.79532L299.879 8.08191C306.422 8.48315 311.588 13.5272 312.219 20.0042L312.678 24.7044C312.85 26.3093 313.482 27.7996 314.515 29.0033L317.671 32.5571C321.976 37.4865 322.09 44.6514 317.958 49.6954L314.916 53.3638C313.883 54.6249 313.309 56.1151 313.195 57.7201L312.908 62.4202C312.506 68.9546 307.455 74.1133 300.97 74.7438L296.264 75.2023C294.657 75.3743 293.164 76.0048 291.959 77.0365L288.401 80.1891C285.875 82.3672 282.776 83.4563 279.677 83.4563ZM270.207 10.6613C268.084 12.4955 265.501 13.6418 262.746 13.8711L258.04 14.3297C254.309 14.6736 251.439 17.6542 251.21 21.3799L250.923 26.08C250.751 28.8887 249.718 31.468 247.939 33.6461L244.897 37.3145C242.544 40.1805 242.601 44.3075 245.069 47.1161L248.168 50.6699C250.005 52.7907 251.153 55.37 251.382 58.1213L251.841 62.8215C252.186 66.5472 255.17 69.4131 258.901 69.6424L263.607 69.929C266.419 70.101 269.002 71.1327 271.183 72.9096L274.856 75.9475C277.726 78.2976 281.858 78.2402 284.67 75.7755L288.229 72.6803C290.352 70.8461 292.935 69.6997 295.69 69.4705L300.396 69.0119C304.126 68.668 306.996 65.6874 307.226 61.9617L307.513 57.2615C307.685 54.4529 308.718 51.8735 310.497 49.6954L313.539 46.027C315.892 43.1611 315.835 39.0341 313.367 36.2255L310.267 32.6717C308.431 30.5509 307.283 27.9716 307.053 25.2203L306.594 20.5201C306.25 16.7944 303.266 13.9284 299.535 13.6992L294.829 13.4126C292.016 13.2406 289.434 12.2089 287.253 10.432L283.58 7.39409C280.71 4.98669 276.578 5.10133 273.765 7.56604L270.207 10.6613Z" fill="#FE7A8B"/>
<path d="M184.634 83.4563C181.649 83.4563 178.665 82.4245 176.197 80.4184L172.524 77.3805C171.261 76.3487 169.769 75.7755 168.162 75.6609L163.456 75.3743C156.913 74.9731 151.748 69.929 151.116 63.452L150.657 58.7518C150.485 57.1469 149.854 55.6566 148.82 54.4529L145.664 50.8991C141.359 45.9697 141.245 38.8048 145.377 33.7608L148.419 30.0924C149.452 28.8314 150.026 27.3411 150.141 25.7361L150.428 21.036C150.829 14.5016 155.88 9.34293 162.365 8.71242L167.072 8.25387C168.679 8.08191 170.171 7.45141 171.376 6.41967L174.934 3.32445C179.87 -0.974472 187.044 -1.08911 192.095 3.03785L195.768 6.07575C197.031 7.10749 198.523 7.68068 200.13 7.79532L204.836 8.08191C211.379 8.48315 216.544 13.5272 217.176 20.0042L217.635 24.7044C217.807 26.3093 218.438 27.7996 219.471 29.0033L222.628 32.5571C226.933 37.4865 227.047 44.6514 222.915 49.6954L219.873 53.3638C218.84 54.6249 218.266 56.1151 218.151 57.7201L217.864 62.4202C217.463 68.9546 212.412 74.1133 205.927 74.7438L201.22 75.2023C199.613 75.3743 198.121 76.0048 196.916 77.0365L193.358 80.1891C190.832 82.3672 187.733 83.4563 184.634 83.4563ZM175.164 10.6613C173.04 12.4955 170.458 13.6418 167.703 13.8711L162.997 14.3297C159.266 14.6736 156.396 17.6542 156.167 21.3799L155.88 26.08C155.708 28.8887 154.675 31.468 152.895 33.6461L149.854 37.3145C147.5 40.1805 147.558 44.3075 150.026 47.1161L153.125 50.6699C154.962 52.7907 156.109 55.37 156.339 58.1213L156.798 62.8215C157.143 66.5472 160.127 69.4131 163.858 69.6424L168.564 69.929C171.376 70.101 173.959 71.1327 176.14 72.9096L179.813 75.9475C182.682 78.2976 186.815 78.2402 189.627 75.7755L193.185 72.6803C195.309 70.8461 197.892 69.6997 200.647 69.4705L205.353 69.0119C209.083 68.668 211.953 65.6874 212.183 61.9617L212.47 57.2615C212.642 54.4529 213.675 51.8735 215.454 49.6954L218.496 46.027C220.849 43.1611 220.792 39.0341 218.324 36.2255L215.224 32.6717C213.388 30.5509 212.24 27.9716 212.01 25.2203L211.551 20.5201C211.207 16.7944 208.222 13.9284 204.492 13.6992L199.786 13.4126C196.973 13.2406 194.391 12.2089 192.21 10.432L188.537 7.39409C185.667 4.98669 181.535 5.10133 178.722 7.56604L175.164 10.6613Z" fill="#FE7A8B"/>
<path d="M137.227 307C134.243 307 131.258 305.968 128.79 303.962L125.117 300.924C123.854 299.892 122.362 299.319 120.755 299.205L116.049 298.918C109.506 298.517 104.341 293.473 103.709 286.996L103.25 282.296C103.078 280.691 102.447 279.2 101.414 277.997L98.2571 274.443C93.9526 269.513 93.8379 262.349 97.9702 257.304L101.012 253.636C102.045 252.375 102.619 250.885 102.734 249.28L103.021 244.58C103.423 238.045 108.473 232.887 114.959 232.256L119.665 231.798C121.272 231.626 122.764 230.995 123.969 229.963L127.528 226.868C132.463 222.569 139.638 222.455 144.688 226.582L148.361 229.619C149.624 230.651 151.116 231.224 152.723 231.339L157.429 231.626C163.972 232.027 169.138 237.071 169.769 243.548L170.228 248.248C170.4 249.853 171.032 251.343 172.065 252.547L175.221 256.101C179.526 261.03 179.641 268.195 175.508 273.239L172.467 276.908C171.433 278.169 170.859 279.659 170.745 281.264L170.458 285.964C170.056 292.498 165.005 297.657 158.52 298.288L153.814 298.746C152.207 298.918 150.714 299.549 149.509 300.58L145.951 303.733C143.483 305.911 140.384 307 137.227 307ZM127.815 234.262C125.691 236.097 123.108 237.243 120.354 237.472L115.647 237.931C111.917 238.275 109.047 241.255 108.817 244.981L108.531 249.681C108.358 252.49 107.325 255.069 105.546 257.247L102.504 260.916C100.151 263.782 100.208 267.908 102.676 270.717L105.776 274.271C107.612 276.392 108.76 278.971 108.99 281.722L109.449 286.423C109.793 290.148 112.778 293.014 116.508 293.243L121.214 293.53C124.027 293.702 126.609 294.734 128.79 296.511L132.463 299.549C135.333 301.899 139.465 301.841 142.278 299.377L145.836 296.281C147.96 294.447 150.542 293.301 153.297 293.071L158.003 292.613C161.734 292.269 164.604 289.288 164.833 285.563L165.12 280.863C165.292 278.054 166.325 275.475 168.105 273.296L171.146 269.628C173.5 266.762 173.442 262.635 170.974 259.827L167.875 256.273C166.038 254.152 164.891 251.573 164.661 248.821L164.202 244.121C163.858 240.395 160.873 237.529 157.143 237.3L152.436 237.014C149.624 236.842 147.041 235.81 144.86 234.033L141.187 230.995C138.318 228.588 134.185 228.702 131.373 231.167L127.815 234.262Z" fill="#FE7A8B"/>
<path d="M42.2414 307C39.2569 307 36.2725 305.968 33.8046 303.962L30.1314 300.924C28.8688 299.892 27.3765 299.319 25.7695 299.205L21.0633 298.918C14.5205 298.517 9.35509 293.473 8.72377 286.996L8.26462 282.296C8.09244 280.691 7.46112 279.2 6.42804 277.997L3.27142 274.443C-1.03307 269.513 -1.14786 262.349 2.98445 257.304L6.02629 253.636C7.05937 252.375 7.6333 250.885 7.74808 249.28L8.03505 244.58C8.4368 238.045 13.4874 232.887 19.9728 232.256L24.6791 231.798C26.2861 231.626 27.7783 230.995 28.9836 229.963L32.5419 226.868C37.4777 222.569 44.6519 222.455 49.7025 226.582L53.3757 229.619C54.6383 230.651 56.1305 231.224 57.7375 231.339L62.4438 231.626C68.9866 232.027 74.152 237.071 74.7833 243.548L75.2425 248.248C75.4146 249.853 76.046 251.343 77.079 252.547L80.2357 256.101C84.5401 261.03 84.6549 268.195 80.5226 273.239L77.4808 276.908C76.4477 278.169 75.8738 279.659 75.759 281.264L75.472 285.964C75.0703 292.498 70.0197 297.657 63.5342 298.288L58.828 298.746C57.221 298.918 55.7288 299.549 54.5235 300.58L50.9651 303.733C48.4398 305.911 45.3406 307 42.2414 307ZM32.7715 234.262C30.648 236.097 28.0653 237.243 25.3104 237.472L20.6042 237.931C16.8736 238.275 14.0039 241.255 13.7744 244.981L13.4874 249.681C13.3152 252.49 12.2821 255.069 10.503 257.247L7.46112 260.916C5.108 263.782 5.16539 267.908 7.6333 270.717L10.7325 274.271C12.5691 276.392 13.717 278.971 13.9465 281.722L14.4057 286.423C14.75 290.148 17.7345 293.014 21.4651 293.243L26.1713 293.53C28.9836 293.702 31.5662 294.734 33.7472 296.511L37.4204 299.549C40.29 301.899 44.4223 301.841 47.2346 299.377L50.793 296.281C52.9165 294.447 55.4992 293.301 58.2541 293.071L62.9603 292.613C66.6909 292.269 69.5605 289.288 69.7901 285.563L70.0771 280.863C70.2492 278.054 71.2823 275.475 73.0615 273.296L76.1034 269.628C78.4565 266.762 78.3991 262.635 75.9312 259.827L72.8319 256.273C70.9954 254.152 69.8475 251.573 69.6179 248.821L69.1588 244.121C68.8144 240.395 65.83 237.529 62.0994 237.3L57.3932 237.014C54.5809 236.842 51.9982 235.81 49.8173 234.033L46.1441 230.995C43.2745 228.588 39.1421 228.702 36.3299 231.167L32.7715 234.262Z" fill="#FE7A8B"/>
<path d="M89.7055 233.001C86.7211 233.001 83.7366 231.97 81.2687 229.963L77.5956 226.925C76.3329 225.894 74.8407 225.321 73.2337 225.206L68.5274 224.919C61.9846 224.518 56.8192 219.474 56.1879 212.997L55.7288 208.297C55.5566 206.692 54.9253 205.202 53.8922 203.998L50.7356 200.444C46.4311 195.515 46.3163 188.35 50.4486 183.306L53.4904 179.637C54.5235 178.376 55.0974 176.886 55.2122 175.281L55.4992 170.581C55.9009 164.047 60.9515 158.888 67.437 158.257L72.1432 157.799C73.7502 157.627 75.2424 156.996 76.4477 155.965L80.0061 152.869C84.9419 148.571 92.116 148.456 97.1666 152.583L100.84 155.621C102.102 156.653 103.595 157.226 105.202 157.34L109.908 157.627C116.451 158.028 121.616 163.072 122.247 169.549L122.707 174.249C122.879 175.854 123.51 177.345 124.543 178.548L127.7 182.102C132.004 187.032 132.119 194.196 127.987 199.24L124.945 202.909C123.912 204.17 123.338 205.66 123.223 207.265L122.936 211.965C122.534 218.5 117.484 223.658 110.998 224.289L106.292 224.747C104.685 224.919 103.193 225.55 101.988 226.582L98.4293 229.734C95.9614 231.855 92.8622 233.001 89.7055 233.001ZM80.293 160.206C78.1695 162.041 75.5868 163.187 72.8319 163.416L68.1257 163.875C64.3951 164.219 61.5255 167.199 61.2959 170.925L61.0089 175.625C60.8368 178.434 59.8037 181.013 58.0245 183.191L54.9827 186.86C52.6295 189.726 52.6869 193.852 55.1548 196.661L58.2541 200.215C60.0906 202.336 61.2385 204.915 61.4681 207.666L61.9272 212.366C62.2716 216.092 65.256 218.958 68.9866 219.187L73.6928 219.474C76.5051 219.646 79.0878 220.678 81.2687 222.455L84.9419 225.493C87.8116 227.843 91.9439 227.785 94.7561 225.321L98.3145 222.225C100.438 220.391 103.021 219.245 105.776 219.015L110.482 218.557C114.212 218.213 117.082 215.232 117.312 211.507L117.599 206.807C117.771 203.998 118.804 201.419 120.583 199.24L123.625 195.572C125.978 192.706 125.921 188.579 123.453 185.771L120.353 182.217C118.517 180.096 117.369 177.517 117.139 174.765L116.68 170.065C116.336 166.339 113.352 163.473 109.621 163.244L104.915 162.958C102.102 162.786 99.5198 161.754 97.3388 159.977L93.6657 156.939C90.796 154.532 86.6637 154.646 83.8514 157.111L80.293 160.206Z" fill="#FE7A8B"/>
<path d="M137.227 158.945C134.243 158.945 131.258 157.914 128.79 155.907L125.117 152.869C123.854 151.838 122.362 151.265 120.755 151.15L116.049 150.863C109.506 150.462 104.341 145.418 103.709 138.941L103.25 134.241C103.078 132.636 102.447 131.146 101.414 129.942L98.2571 126.388C93.9526 121.459 93.8379 114.294 97.9702 109.25L101.012 105.581C102.045 104.32 102.619 102.83 102.734 101.225L103.021 96.525C103.423 89.9906 108.473 84.8319 114.959 84.2014L119.665 83.7429C121.272 83.5709 122.764 82.9404 123.969 81.9087L127.528 78.8135C132.463 74.5145 139.638 74.3999 144.688 78.5269L148.361 81.5648C149.624 82.5965 151.116 83.1697 152.723 83.2843L157.429 83.5709C163.972 83.9722 169.138 89.0162 169.769 95.4933L170.228 100.193C170.4 101.798 171.032 103.289 172.065 104.492L175.221 108.046C179.526 112.976 179.641 120.14 175.508 125.184L172.467 128.853C171.433 130.114 170.859 131.604 170.745 133.209L170.458 137.909C170.056 144.444 165.005 149.602 158.52 150.233L153.814 150.691C152.207 150.863 150.714 151.494 149.509 152.526L145.951 155.678C143.483 157.799 140.384 158.945 137.227 158.945ZM127.815 86.1503C125.691 87.9845 123.108 89.1309 120.354 89.3601L115.647 89.8187C111.917 90.1626 109.047 93.1432 108.817 96.8689L108.531 101.569C108.358 104.378 107.325 106.957 105.546 109.135L102.504 112.804C100.151 115.67 100.208 119.796 102.676 122.605L105.776 126.159C107.612 128.28 108.76 130.859 108.99 133.61L109.449 138.31C109.793 142.036 112.778 144.902 116.508 145.131L121.214 145.418C124.027 145.59 126.609 146.622 128.79 148.399L132.463 151.437C135.333 153.787 139.465 153.729 142.278 151.265L145.836 148.169C147.96 146.335 150.542 145.189 153.297 144.959L158.003 144.501C161.734 144.157 164.604 141.176 164.833 137.451L165.12 132.751C165.292 129.942 166.325 127.363 168.105 125.184L171.146 121.516C173.5 118.65 173.442 114.523 170.974 111.715L167.875 108.161C166.038 106.04 164.891 103.461 164.661 100.709L164.202 96.0091C163.858 92.2834 160.873 89.4175 157.143 89.1882L152.436 88.9016C149.624 88.7296 147.041 87.6979 144.86 85.921L141.187 82.8831C138.318 80.4757 134.185 80.5903 131.373 83.0551L127.815 86.1503Z" fill="#FE7A8B"/>
<path d="M42.2414 158.945C39.2569 158.945 36.2725 157.914 33.8046 155.907L30.1314 152.869C28.8688 151.838 27.3765 151.265 25.7695 151.15L21.0633 150.863C14.5205 150.462 9.35509 145.418 8.72377 138.941L8.26462 134.241C8.09244 132.636 7.46112 131.146 6.42804 129.942L3.27142 126.388C-1.03307 121.459 -1.14786 114.294 2.98445 109.25L6.02629 105.581C7.05937 104.32 7.6333 102.83 7.74808 101.225L8.03505 96.525C8.4368 89.9906 13.4874 84.8319 19.9728 84.2014L24.6791 83.7429C26.2861 83.5709 27.7783 82.9404 28.9836 81.9087L32.5419 78.8135C37.4777 74.5145 44.6519 74.3999 49.7025 78.5269L53.3757 81.5648C54.6383 82.5965 56.1305 83.1697 57.7375 83.2843L62.4438 83.5709C68.9866 83.9722 74.152 89.0162 74.7833 95.4933L75.2425 100.193C75.4146 101.798 76.046 103.289 77.079 104.492L80.2357 108.046C84.5401 112.976 84.6549 120.14 80.5226 125.184L77.4808 128.853C76.4477 130.114 75.8738 131.604 75.759 133.209L75.472 137.909C75.0703 144.444 70.0197 149.602 63.5342 150.233L58.828 150.691C57.221 150.863 55.7288 151.494 54.5235 152.526L50.9651 155.678C48.4398 157.799 45.3406 158.945 42.2414 158.945ZM32.7715 86.1503C30.648 87.9845 28.0653 89.1309 25.3104 89.3601L20.6042 89.8187C16.8736 90.1626 14.0039 93.1432 13.7744 96.8689L13.4874 101.569C13.3152 104.378 12.2821 106.957 10.503 109.135L7.46112 112.804C5.108 115.67 5.16539 119.796 7.6333 122.605L10.7325 126.159C12.5691 128.28 13.717 130.859 13.9465 133.61L14.4057 138.31C14.75 142.036 17.7345 144.902 21.4651 145.131L26.1713 145.418C28.9836 145.59 31.5662 146.622 33.7472 148.399L37.4204 151.437C40.29 153.787 44.4223 153.729 47.2346 151.265L50.793 148.169C52.9165 146.335 55.4992 145.189 58.2541 144.959L62.9603 144.501C66.6909 144.157 69.5605 141.176 69.7901 137.451L70.0771 132.751C70.2492 129.942 71.2823 127.363 73.0615 125.184L76.1034 121.516C78.4565 118.65 78.3991 114.523 75.9312 111.715L72.8319 108.161C70.9954 106.04 69.8475 103.461 69.6179 100.709L69.1588 96.0091C68.8144 92.2834 65.83 89.4175 62.0994 89.1882L57.3932 88.9016C54.5809 88.7296 51.9982 87.6979 49.8173 85.921L46.1441 82.8831C43.2745 80.4757 39.1421 80.5903 36.3299 83.0551L32.7715 86.1503Z" fill="#FE7A8B"/>
</g>
<defs>
<clipPath id="clip0_88_56">
<rect width="321" height="307" fill="white"/>
</clipPath>
</defs>
</svg>
