<svg width="593" height="161" viewBox="0 0 593 161" fill="none" xmlns="http://www.w3.org/2000/svg">
<g opacity="0.7">
<path d="M154.041 139.639L139.584 125.182L125.127 139.639L139.584 154.097L154.041 139.639Z" stroke="#FED593" stroke-opacity="0.71" stroke-width="3" stroke-miterlimit="10"/>
<path d="M113.177 139.559L118.058 150.111L106.582 148.792L98.0076 156.575L95.7651 145.231L82.9701 139.559L95.7651 133.886L98.0076 122.542L106.582 130.325L118.058 129.006L113.177 139.559Z" stroke="#FED593" stroke-opacity="0.71" stroke-width="3" stroke-miterlimit="10"/>
<path d="M47.223 139.559L42.3424 129.006L53.9503 130.325L62.3924 122.542L64.7668 133.886L77.4299 139.559L64.7668 145.231L62.3924 156.575L53.9503 148.792L42.3424 150.111L47.223 139.559Z" stroke="#FED593" stroke-opacity="0.71" stroke-width="3" stroke-miterlimit="10"/>
<path d="M35.3246 139.64L20.8674 125.183L6.41026 139.64L20.8674 154.097L35.3246 139.64Z" stroke="#FED593" stroke-opacity="0.71" stroke-width="3" stroke-miterlimit="10"/>
<path d="M154.04 20.9232L139.583 6.466L125.126 20.9232L139.583 35.3803L154.04 20.9232Z" stroke="#FED593" stroke-opacity="0.71" stroke-width="3" stroke-miterlimit="10"/>
<path d="M80.2 57.248L96.4247 41.0233V63.9753H119.245L103.02 80.0681L119.245 96.2928H96.4247V119.245L80.2 102.888L63.9753 119.245L64.1072 96.2928H41.1553L57.3799 80.0681L41.1553 63.9753H64.1072L63.9753 41.0233L80.2 57.248Z" stroke="#FED593" stroke-opacity="0.71" stroke-width="3" stroke-miterlimit="10"/>
<path d="M139.559 47.0911L150.111 42.3424L148.792 53.8184L156.575 62.2605L145.231 64.6348L139.559 77.298L133.886 64.6348L122.542 62.2605L130.325 53.8184L129.006 42.3424L139.559 47.0911Z" stroke="#FED593" stroke-opacity="0.71" stroke-width="3" stroke-miterlimit="10"/>
<path d="M139.559 113.177L129.006 117.926L130.325 106.45L122.542 97.8756L133.886 95.6332L139.559 82.8381L145.231 95.6332L156.575 97.8756L148.792 106.45L150.111 117.926L139.559 113.177Z" stroke="#FED593" stroke-opacity="0.71" stroke-width="3" stroke-miterlimit="10"/>
<path d="M113.177 20.8414L118.058 31.3941L106.582 30.075L98.0076 37.8576L95.7651 26.5135L82.9701 20.8414L95.7651 15.1694L98.0076 3.82532L106.582 11.6079L118.058 10.2888L113.177 20.8414Z" stroke="#FED593" stroke-opacity="0.71" stroke-width="3" stroke-miterlimit="10"/>
<path d="M47.223 20.8414L42.3424 10.2888L53.9503 11.6079L62.3924 3.82532L64.7668 15.1694L77.4299 20.8414L64.7668 26.5135L62.3924 37.8576L53.9503 30.075L42.3424 31.3941L47.223 20.8414Z" stroke="#FED593" stroke-opacity="0.71" stroke-width="3" stroke-miterlimit="10"/>
<path d="M35.3238 20.924L20.8666 6.4668L6.40947 20.924L20.8666 35.3811L35.3238 20.924Z" stroke="#FED593" stroke-opacity="0.71" stroke-width="3" stroke-miterlimit="10"/>
<path d="M84.553 80.0681C84.553 82.4424 82.5743 84.421 80.2 84.421C77.8257 84.421 75.847 82.4424 75.847 80.0681C75.847 77.6937 77.8257 75.7151 80.2 75.7151C82.5743 75.847 84.553 77.6937 84.553 80.0681Z" fill="#FED593" fill-opacity="0.71"/>
<path d="M20.8415 47.0911L31.3941 42.3424L30.075 53.8184L37.8576 62.2605L26.5135 64.6348L20.8415 77.298L15.1694 64.6348L3.82533 62.2605L11.6079 53.8184L10.2888 42.3424L20.8415 47.0911Z" stroke="#FED593" stroke-opacity="0.71" stroke-width="3" stroke-miterlimit="10"/>
<path d="M20.8415 113.177L10.2888 117.926L11.6079 106.45L3.82533 97.8756L15.1694 95.6332L20.8415 82.8381L26.5135 95.6332L37.8576 97.8756L30.075 106.45L31.3941 117.926L20.8415 113.177Z" stroke="#FED593" stroke-opacity="0.71" stroke-width="3" stroke-miterlimit="10"/>
<path d="M465.344 139.639L450.886 125.182L436.429 139.639L450.886 154.097L465.344 139.639Z" stroke="#FED593" stroke-opacity="0.71" stroke-width="3" stroke-miterlimit="10"/>
<path d="M424.48 139.559L429.36 150.111L417.884 148.792L409.31 156.575L407.068 145.231L394.273 139.559L407.068 133.886L409.31 122.542L417.884 130.325L429.36 129.006L424.48 139.559Z" stroke="#FED593" stroke-opacity="0.71" stroke-width="3" stroke-miterlimit="10"/>
<path d="M358.526 139.559L353.645 129.006L365.253 130.325L373.695 122.542L376.069 133.886L388.733 139.559L376.069 145.231L373.695 156.575L365.253 148.792L353.645 150.111L358.526 139.559Z" stroke="#FED593" stroke-opacity="0.71" stroke-width="3" stroke-miterlimit="10"/>
<path d="M346.627 139.64L332.17 125.183L317.713 139.64L332.17 154.097L346.627 139.64Z" stroke="#FED593" stroke-opacity="0.71" stroke-width="3" stroke-miterlimit="10"/>
<path d="M465.343 20.9232L450.886 6.466L436.428 20.9232L450.886 35.3803L465.343 20.9232Z" stroke="#FED593" stroke-opacity="0.71" stroke-width="3" stroke-miterlimit="10"/>
<path d="M391.503 57.248L407.727 41.0233V63.9753H430.547L414.323 80.0681L430.547 96.2928H407.727V119.245L391.503 102.888L375.278 119.245L375.41 96.2928H352.458L368.683 80.0681L352.458 63.9753H375.41L375.278 41.0233L391.503 57.248Z" stroke="#FED593" stroke-opacity="0.71" stroke-width="3" stroke-miterlimit="10"/>
<path d="M450.861 47.0911L461.414 42.3424L460.095 53.8184L467.877 62.2605L456.533 64.6348L450.861 77.298L445.189 64.6348L433.845 62.2605L441.628 53.8184L440.309 42.3424L450.861 47.0911Z" stroke="#FED593" stroke-opacity="0.71" stroke-width="3" stroke-miterlimit="10"/>
<path d="M450.861 113.177L440.309 117.926L441.628 106.45L433.845 97.8756L445.189 95.6332L450.861 82.8381L456.533 95.6332L467.877 97.8756L460.095 106.45L461.414 117.926L450.861 113.177Z" stroke="#FED593" stroke-opacity="0.71" stroke-width="3" stroke-miterlimit="10"/>
<path d="M424.48 20.8414L429.36 31.3941L417.884 30.075L409.31 37.8576L407.068 26.5135L394.273 20.8414L407.068 15.1694L409.31 3.82532L417.884 11.6079L429.36 10.2888L424.48 20.8414Z" stroke="#FED593" stroke-opacity="0.71" stroke-width="3" stroke-miterlimit="10"/>
<path d="M358.526 20.8414L353.645 10.2888L365.253 11.6079L373.695 3.82532L376.069 15.1694L388.733 20.8414L376.069 26.5135L373.695 37.8576L365.253 30.075L353.645 31.3941L358.526 20.8414Z" stroke="#FED593" stroke-opacity="0.71" stroke-width="3" stroke-miterlimit="10"/>
<path d="M346.626 20.924L332.169 6.4668L317.712 20.924L332.169 35.3811L346.626 20.924Z" stroke="#FED593" stroke-opacity="0.71" stroke-width="3" stroke-miterlimit="10"/>
<path d="M395.856 80.0681C395.856 82.4424 393.877 84.421 391.503 84.421C389.128 84.421 387.15 82.4424 387.15 80.0681C387.15 77.6937 389.128 75.7151 391.503 75.7151C393.877 75.847 395.856 77.6937 395.856 80.0681Z" fill="#FED593" fill-opacity="0.71"/>
<path d="M332.144 47.0911L342.697 42.3424L341.378 53.8184L349.16 62.2605L337.816 64.6348L332.144 77.298L326.472 64.6348L315.128 62.2605L322.911 53.8184L321.591 42.3424L332.144 47.0911Z" stroke="#FED593" stroke-opacity="0.71" stroke-width="3" stroke-miterlimit="10"/>
<path d="M332.144 113.177L321.591 117.926L322.911 106.45L315.128 97.8756L326.472 95.6332L332.144 82.8381L337.816 95.6332L349.16 97.8756L341.378 106.45L342.697 117.926L332.144 113.177Z" stroke="#FED593" stroke-opacity="0.71" stroke-width="3" stroke-miterlimit="10"/>
<path d="M309.692 139.639L295.235 125.182L280.778 139.639L295.235 154.097L309.692 139.639Z" stroke="#FED593" stroke-opacity="0.71" stroke-width="3" stroke-miterlimit="10"/>
<path d="M268.828 139.559L273.709 150.111L262.233 148.792L253.659 156.575L251.416 145.231L238.621 139.559L251.416 133.886L253.659 122.542L262.233 130.325L273.709 129.006L268.828 139.559Z" stroke="#FED593" stroke-opacity="0.71" stroke-width="3" stroke-miterlimit="10"/>
<path d="M202.874 139.559L197.994 129.006L209.602 130.325L218.044 122.542L220.418 133.886L233.081 139.559L220.418 145.231L218.044 156.575L209.602 148.792L197.994 150.111L202.874 139.559Z" stroke="#FED593" stroke-opacity="0.71" stroke-width="3" stroke-miterlimit="10"/>
<path d="M190.976 139.64L176.519 125.183L162.062 139.64L176.519 154.097L190.976 139.64Z" stroke="#FED593" stroke-opacity="0.71" stroke-width="3" stroke-miterlimit="10"/>
<path d="M309.691 20.9232L295.234 6.466L280.777 20.9232L295.234 35.3803L309.691 20.9232Z" stroke="#FED593" stroke-opacity="0.71" stroke-width="3" stroke-miterlimit="10"/>
<path d="M235.851 57.248L252.076 41.0233V63.9753H274.896L258.671 80.0681L274.896 96.2928H252.076V119.245L235.851 102.888L219.627 119.245L219.759 96.2928H196.807L213.031 80.0681L196.807 63.9753H219.759L219.627 41.0233L235.851 57.248Z" stroke="#FED593" stroke-opacity="0.71" stroke-width="3" stroke-miterlimit="10"/>
<path d="M295.21 47.0911L305.762 42.3424L304.443 53.8184L312.226 62.2605L300.882 64.6348L295.21 77.298L289.538 64.6348L278.194 62.2605L285.976 53.8184L284.657 42.3424L295.21 47.0911Z" stroke="#FED593" stroke-opacity="0.71" stroke-width="3" stroke-miterlimit="10"/>
<path d="M295.21 113.177L284.657 117.926L285.976 106.45L278.194 97.8756L289.538 95.6332L295.21 82.8381L300.882 95.6332L312.226 97.8756L304.443 106.45L305.762 117.926L295.21 113.177Z" stroke="#FED593" stroke-opacity="0.71" stroke-width="3" stroke-miterlimit="10"/>
<path d="M268.828 20.8414L273.709 31.3941L262.233 30.075L253.659 37.8576L251.416 26.5135L238.621 20.8414L251.416 15.1694L253.659 3.82532L262.233 11.6079L273.709 10.2888L268.828 20.8414Z" stroke="#FED593" stroke-opacity="0.71" stroke-width="3" stroke-miterlimit="10"/>
<path d="M202.874 20.8414L197.994 10.2888L209.602 11.6079L218.044 3.82532L220.418 15.1694L233.081 20.8414L220.418 26.5135L218.044 37.8576L209.602 30.075L197.994 31.3941L202.874 20.8414Z" stroke="#FED593" stroke-opacity="0.71" stroke-width="3" stroke-miterlimit="10"/>
<path d="M190.975 20.924L176.518 6.4668L162.061 20.924L176.518 35.3811L190.975 20.924Z" stroke="#FED593" stroke-opacity="0.71" stroke-width="3" stroke-miterlimit="10"/>
<path d="M240.204 80.0681C240.204 82.4424 238.226 84.421 235.851 84.421C233.477 84.421 231.498 82.4424 231.498 80.0681C231.498 77.6937 233.477 75.7151 235.851 75.7151C238.226 75.847 240.204 77.6937 240.204 80.0681Z" fill="#FED593" fill-opacity="0.71"/>
<path d="M176.493 47.0911L187.045 42.3424L185.726 53.8184L193.509 62.2605L182.165 64.6348L176.493 77.298L170.821 64.6348L159.477 62.2605L167.259 53.8184L165.94 42.3424L176.493 47.0911Z" stroke="#FED593" stroke-opacity="0.71" stroke-width="3" stroke-miterlimit="10"/>
<path d="M176.493 113.177L165.94 117.926L167.259 106.45L159.477 97.8756L170.821 95.6332L176.493 82.8381L182.165 95.6332L193.509 97.8756L185.726 106.45L187.045 117.926L176.493 113.177Z" stroke="#FED593" stroke-opacity="0.71" stroke-width="3" stroke-miterlimit="10"/>
<path d="M620.995 139.639L606.538 125.182L592.081 139.639L606.538 154.097L620.995 139.639Z" stroke="#FED593" stroke-opacity="0.71" stroke-width="3" stroke-miterlimit="10"/>
<path d="M580.131 139.559L585.012 150.111L573.536 148.792L564.962 156.575L562.719 145.231L549.924 139.559L562.719 133.886L564.962 122.542L573.536 130.325L585.012 129.006L580.131 139.559Z" stroke="#FED593" stroke-opacity="0.71" stroke-width="3" stroke-miterlimit="10"/>
<path d="M514.177 139.559L509.296 129.006L520.904 130.325L529.346 122.542L531.721 133.886L544.384 139.559L531.721 145.231L529.346 156.575L520.904 148.792L509.296 150.111L514.177 139.559Z" stroke="#FED593" stroke-opacity="0.71" stroke-width="3" stroke-miterlimit="10"/>
<path d="M502.279 139.64L487.821 125.183L473.364 139.64L487.821 154.097L502.279 139.64Z" stroke="#FED593" stroke-opacity="0.71" stroke-width="3" stroke-miterlimit="10"/>
<path d="M620.994 20.9232L606.537 6.466L592.08 20.9232L606.537 35.3803L620.994 20.9232Z" stroke="#FED593" stroke-opacity="0.71" stroke-width="3" stroke-miterlimit="10"/>
<path d="M547.154 57.248L563.379 41.0233V63.9753H586.199L569.974 80.0681L586.199 96.2928H563.379V119.245L547.154 102.888L530.929 119.245L531.061 96.2928H508.109L524.334 80.0681L508.109 63.9753H531.061L530.929 41.0233L547.154 57.248Z" stroke="#FED593" stroke-opacity="0.71" stroke-width="3" stroke-miterlimit="10"/>
<path d="M606.513 47.0911L617.065 42.3424L615.746 53.8184L623.529 62.2605L612.185 64.6348L606.513 77.298L600.84 64.6348L589.496 62.2605L597.279 53.8184L595.96 42.3424L606.513 47.0911Z" stroke="#FED593" stroke-opacity="0.71" stroke-width="3" stroke-miterlimit="10"/>
<path d="M606.513 113.177L595.96 117.926L597.279 106.45L589.496 97.8756L600.84 95.6332L606.513 82.8381L612.185 95.6332L623.529 97.8756L615.746 106.45L617.065 117.926L606.513 113.177Z" stroke="#FED593" stroke-opacity="0.71" stroke-width="3" stroke-miterlimit="10"/>
<path d="M580.131 20.8414L585.012 31.3941L573.536 30.075L564.962 37.8576L562.719 26.5135L549.924 20.8414L562.719 15.1694L564.962 3.82532L573.536 11.6079L585.012 10.2888L580.131 20.8414Z" stroke="#FED593" stroke-opacity="0.71" stroke-width="3" stroke-miterlimit="10"/>
<path d="M514.177 20.8414L509.296 10.2888L520.904 11.6079L529.346 3.82532L531.721 15.1694L544.384 20.8414L531.721 26.5135L529.346 37.8576L520.904 30.075L509.296 31.3941L514.177 20.8414Z" stroke="#FED593" stroke-opacity="0.71" stroke-width="3" stroke-miterlimit="10"/>
<path d="M502.278 20.924L487.821 6.4668L473.363 20.924L487.821 35.3811L502.278 20.924Z" stroke="#FED593" stroke-opacity="0.71" stroke-width="3" stroke-miterlimit="10"/>
<path d="M551.507 80.0681C551.507 82.4424 549.528 84.421 547.154 84.421C544.78 84.421 542.801 82.4424 542.801 80.0681C542.801 77.6937 544.78 75.7151 547.154 75.7151C549.528 75.847 551.507 77.6937 551.507 80.0681Z" fill="#FED593" fill-opacity="0.71"/>
<path d="M487.795 47.0911L498.348 42.3424L497.029 53.8184L504.812 62.2605L493.467 64.6348L487.795 77.298L482.123 64.6348L470.779 62.2605L478.562 53.8184L477.243 42.3424L487.795 47.0911Z" stroke="#FED593" stroke-opacity="0.71" stroke-width="3" stroke-miterlimit="10"/>
<path d="M487.795 113.177L477.243 117.926L478.562 106.45L470.779 97.8756L482.123 95.6332L487.795 82.8381L493.467 95.6332L504.812 97.8756L497.029 106.45L498.348 117.926L487.795 113.177Z" stroke="#FED593" stroke-opacity="0.71" stroke-width="3" stroke-miterlimit="10"/>
</g>
</svg>
